<svg width="512" height="512" viewBox="0 0 512 512" fill="none" xmlns="http://www.w3.org/2000/svg">
<path d="M512 1.02196C449.775 71.3836 349.131 162.071 349.131 256C349.131 349.929 449.775 440.616 512 510.978L510.978 512C440.621 449.766 349.932 349.116 256 349.116C162.068 349.116 71.3791 449.766 1.02194 512L0 510.978C62.2341 440.621 162.884 349.932 162.884 256C162.884 162.068 62.2341 71.3791 0 1.02194L1.02194 0C71.3835 62.225 162.071 162.869 256 162.869C349.929 162.869 440.616 62.225 510.978 2.3627e-05L512 1.02196Z" fill="url(#paint0_radial_1005_8)"/>
<path d="M307.2 256C307.2 284.277 284.277 307.2 256 307.2C227.723 307.2 204.8 284.277 204.8 256C204.8 227.723 227.723 204.8 256 204.8C284.277 204.8 307.2 227.723 307.2 256Z" fill="white"/>
<defs>
<radialGradient id="paint0_radial_1005_8" cx="0" cy="0" r="1" gradientUnits="userSpaceOnUse" gradientTransform="translate(261.068 249.6) rotate(-45.4016) scale(176.768 176.776)">
<stop offset="0.144231" stop-color="#CEEFFD"/>
<stop offset="0.576923" stop-color="#38BDF8"/>
</radialGradient>
</defs>
</svg>
