<svg width="232" height="122" viewBox="0 0 232 122" fill="none" xmlns="http://www.w3.org/2000/svg">
<g filter="url(#filter0_d_20444_76957)">
<path d="M96.8305 74.8999C92.0207 70.5247 85.8213 63.4482 79.4004 63.4482C72.9794 63.4482 66.7801 70.5247 61.9702 74.8999L61.9004 74.828C66.1547 69.8811 73.0351 63.5045 73.0351 56.8999C73.0351 50.2953 66.1547 43.9187 61.9004 38.9718L61.9702 38.8999C66.7798 43.2757 72.9793 50.3527 79.4004 50.3527C85.8215 50.3527 92.021 43.2757 96.8305 38.8999L96.9004 38.9718C92.6467 43.9191 85.7667 50.2955 85.7667 56.8999C85.7667 63.5043 92.6467 69.8808 96.9004 74.8281L96.8305 74.8999Z" fill="url(#paint0_radial_20444_76957)"/>
<path d="M79.4004 60.4999C77.4674 60.4999 75.9004 58.8881 75.9004 56.8999C75.9004 54.9117 77.4674 53.2999 79.4004 53.2999C81.3334 53.2999 82.9004 54.9117 82.9004 56.8999C82.9004 58.8881 81.3334 60.4999 79.4004 60.4999Z" fill="white"/>
</g>
<path d="M126.004 52.6679C126.004 53.9692 125.706 55.1639 125.108 56.2519C124.511 57.3186 123.594 58.1826 122.356 58.8439C121.119 59.5052 119.583 59.8359 117.748 59.8359H114.356V67.8999H108.884V45.4359H117.748C119.54 45.4359 121.055 45.7452 122.292 46.3639C123.53 46.9826 124.458 47.8359 125.076 48.9239C125.695 50.0119 126.004 51.2599 126.004 52.6679ZM117.332 55.4839C118.378 55.4839 119.156 55.2386 119.668 54.7479C120.18 54.2572 120.436 53.5639 120.436 52.6679C120.436 51.7719 120.18 51.0786 119.668 50.5879C119.156 50.0972 118.378 49.8519 117.332 49.8519H114.356V55.4839H117.332ZM136.981 68.1559C135.232 68.1559 133.653 67.7826 132.245 67.0359C130.858 66.2892 129.76 65.2226 128.949 63.8359C128.16 62.4492 127.765 60.8279 127.765 58.9719C127.765 57.1372 128.17 55.5266 128.981 54.1399C129.792 52.7319 130.901 51.6546 132.309 50.9079C133.717 50.1612 135.296 49.7879 137.045 49.7879C138.794 49.7879 140.373 50.1612 141.781 50.9079C143.189 51.6546 144.298 52.7319 145.109 54.1399C145.92 55.5266 146.325 57.1372 146.325 58.9719C146.325 60.8066 145.909 62.4279 145.077 63.8359C144.266 65.2226 143.146 66.2892 141.717 67.0359C140.309 67.7826 138.73 68.1559 136.981 68.1559ZM136.981 63.4199C138.026 63.4199 138.912 63.0359 139.637 62.2679C140.384 61.4999 140.757 60.4012 140.757 58.9719C140.757 57.5426 140.394 56.4439 139.669 55.6759C138.965 54.9079 138.09 54.5239 137.045 54.5239C135.978 54.5239 135.093 54.9079 134.389 55.6759C133.685 56.4226 133.333 57.5212 133.333 58.9719C133.333 60.4012 133.674 61.4999 134.357 62.2679C135.061 63.0359 135.936 63.4199 136.981 63.4199ZM154.7 44.2199V67.8999H149.228V44.2199H154.7ZM164.138 44.2199V67.8999H158.666V44.2199H164.138ZM185.735 50.0439V67.8999H180.263V65.4679C179.708 66.2572 178.951 66.8972 177.991 67.3879C177.052 67.8572 176.007 68.0919 174.855 68.0919C173.49 68.0919 172.284 67.7932 171.239 67.1959C170.194 66.5772 169.383 65.6919 168.807 64.5399C168.231 63.3879 167.943 62.0332 167.943 60.4759V50.0439H173.383V59.7399C173.383 60.9346 173.692 61.8626 174.311 62.5239C174.93 63.1852 175.762 63.5159 176.807 63.5159C177.874 63.5159 178.716 63.1852 179.335 62.5239C179.954 61.8626 180.263 60.9346 180.263 59.7399V50.0439H185.735ZM200.226 67.8999L196.802 62.9399L193.922 67.8999H188.002L193.89 58.7799L187.842 50.0439H193.986L197.41 54.9719L200.29 50.0439H206.21L200.226 59.0359L206.37 67.8999H200.226ZM207.39 58.9399C207.39 57.1052 207.731 55.4946 208.414 54.1079C209.118 52.7212 210.067 51.6546 211.262 50.9079C212.457 50.1612 213.79 49.7879 215.262 49.7879C216.521 49.7879 217.619 50.0439 218.558 50.5559C219.518 51.0679 220.254 51.7399 220.766 52.5719V50.0439H226.238V67.8999H220.766V65.3719C220.233 66.2039 219.486 66.8759 218.526 67.3879C217.587 67.8999 216.489 68.1559 215.23 68.1559C213.779 68.1559 212.457 67.7826 211.262 67.0359C210.067 66.2679 209.118 65.1906 208.414 63.8039C207.731 62.3959 207.39 60.7746 207.39 58.9399ZM220.766 58.9719C220.766 57.6066 220.382 56.5292 219.614 55.7399C218.867 54.9506 217.95 54.5559 216.862 54.5559C215.774 54.5559 214.846 54.9506 214.078 55.7399C213.331 56.5079 212.958 57.5746 212.958 58.9399C212.958 60.3052 213.331 61.3932 214.078 62.2039C214.846 62.9932 215.774 63.3879 216.862 63.3879C217.95 63.3879 218.867 62.9932 219.614 62.2039C220.382 61.4146 220.766 60.3372 220.766 58.9719Z" fill="black"/>
<defs>
<filter id="filter0_d_20444_76957" x="0.000389099" y="-9.91821e-05" width="120.8" height="121.8" filterUnits="userSpaceOnUse" color-interpolation-filters="sRGB">
<feFlood flood-opacity="0" result="BackgroundImageFix"/>
<feColorMatrix in="SourceAlpha" type="matrix" values="0 0 0 0 0 0 0 0 0 0 0 0 0 0 0 0 0 0 127 0" result="hardAlpha"/>
<feOffset dx="-19" dy="4"/>
<feGaussianBlur stdDeviation="21.45"/>
<feComposite in2="hardAlpha" operator="out"/>
<feColorMatrix type="matrix" values="0 0 0 0 0 0 0 0 0 0 0 0 0 0 0 0 0 0 0.25 0"/>
<feBlend mode="normal" in2="BackgroundImageFix" result="effect1_dropShadow_20444_76957"/>
<feBlend mode="normal" in="SourceGraphic" in2="effect1_dropShadow_20444_76957" result="shape"/>
</filter>
<radialGradient id="paint0_radial_20444_76957" cx="0" cy="0" r="1" gradientTransform="matrix(8.60417 8.7268 -8.45833 8.87726 79.8379 57.2563)" gradientUnits="userSpaceOnUse">
<stop offset="0.144231" stop-color="#CEEFFD"/>
<stop offset="0.576923" stop-color="#38BDF8"/>
</radialGradient>
</defs>
</svg>
